<svg width="2584" height="486" viewBox="0 0 2584 486" fill="none" xmlns="http://www.w3.org/2000/svg">
<rect width="2583.75" height="485.833" rx="53" fill="#002D77"/>
<path d="M0 53C0 23.7289 23.7289 0 53 0H229.667C363.826 0 472.583 108.758 472.583 242.917V242.917C472.583 377.076 363.826 485.833 229.667 485.833H53C23.7289 485.833 0 462.104 0 432.833V53Z" fill="#FF6600"/>
<path d="M815.688 353.121C815.688 358.315 813.019 360.912 807.681 360.912H798.808C793.325 360.912 790.584 358.315 790.584 353.121V154.884C790.584 152.864 791.161 151.205 792.315 149.906C793.47 148.608 795.129 147.958 797.293 147.958H810.061C813.091 147.958 814.751 149.545 815.039 152.72L815.688 178.473C818.862 174 822.397 169.816 826.293 165.921C830.333 161.881 834.805 158.418 839.711 155.533C844.616 152.647 849.882 150.339 855.509 148.608C861.28 146.876 867.484 146.011 874.121 146.011C882.345 146.011 890.064 147.165 897.277 149.473C904.491 151.637 911.056 154.739 916.971 158.779C923.031 162.675 928.369 167.364 932.986 172.846C937.603 178.185 941.426 184.1 944.456 190.592C947.486 183.956 951.237 177.896 955.71 172.413C960.183 166.787 965.232 162.025 970.859 158.13C976.63 154.09 982.978 150.988 989.904 148.824C996.829 146.66 1004.26 145.578 1012.19 145.578C1022.44 145.578 1031.96 147.381 1040.76 150.988C1049.71 154.595 1057.57 159.573 1064.35 165.921C1071.28 172.125 1076.9 179.483 1081.23 187.995C1085.56 196.508 1088.3 205.742 1089.46 215.697C1090.32 223.343 1090.75 230.918 1090.75 238.421V352.256C1090.75 355.141 1089.96 357.305 1088.37 358.748C1086.79 360.191 1084.69 360.912 1082.1 360.912H1074.31C1068.39 360.912 1065.43 358.099 1065.43 352.472V226.95C1065.29 219.159 1063.85 211.801 1061.1 204.876C1058.51 197.951 1054.83 191.963 1050.07 186.913C1045.31 181.864 1039.61 177.896 1032.97 175.01C1026.33 171.981 1019.12 170.466 1011.33 170.466C1004.55 170.466 998.055 171.62 991.852 173.928C985.648 176.237 980.021 179.411 974.971 183.451C970.066 187.49 965.882 192.324 962.419 197.951C959.1 203.577 956.792 209.637 955.494 216.13C954.772 219.592 954.195 223.127 953.762 226.734C953.329 230.341 953.113 234.02 953.113 237.771V352.256C953.113 358.027 950.372 360.912 944.889 360.912H936.232C930.75 360.912 928.009 358.099 928.009 352.472V226.301C927.864 218.51 926.277 211.224 923.247 204.443C920.362 197.662 916.394 191.747 911.344 186.697C906.439 181.647 900.668 177.68 894.031 174.794C887.394 171.908 880.18 170.466 872.389 170.466C864.598 170.466 857.24 171.981 850.315 175.01C843.39 177.896 837.33 181.936 832.136 187.13C827.086 192.324 823.046 198.383 820.017 205.309C817.131 212.234 815.688 219.664 815.688 227.6V353.121Z" fill="white"/>
<path d="M1154.04 156.399C1154.04 150.483 1157.07 147.525 1163.12 147.525H1169.62C1175.97 147.525 1179.14 150.483 1179.14 156.399V183.451C1181.02 180.277 1183.76 176.381 1187.36 171.764C1191.11 167.003 1196.09 162.458 1202.3 158.13C1208.64 153.802 1216.36 150.123 1225.45 147.093C1234.54 144.063 1245.44 142.548 1258.13 142.548C1272.27 142.548 1285.47 145.433 1297.74 151.205C1310.14 156.976 1320.96 164.839 1330.2 174.794C1339.43 184.749 1346.65 196.508 1351.84 210.07C1357.18 223.488 1359.85 237.843 1359.85 253.137C1359.85 268.43 1357.18 282.786 1351.84 296.204C1346.65 309.622 1339.43 321.38 1330.2 331.48C1320.96 341.435 1310.14 349.298 1297.74 355.069C1285.47 360.84 1272.27 363.726 1258.13 363.726C1248.18 363.726 1239.02 362.427 1230.65 359.83C1222.42 357.233 1215.06 353.698 1208.57 349.226C1202.08 344.609 1196.38 339.271 1191.48 333.211C1186.57 327.151 1182.46 320.659 1179.14 313.734V436.442C1179.14 439.039 1178.35 441.059 1176.76 442.501C1175.17 444.088 1172.86 444.882 1169.83 444.882H1163.56C1160.53 444.882 1158.15 444.088 1156.42 442.501C1154.83 441.059 1154.04 439.039 1154.04 436.442V156.399ZM1177.62 252.92C1177.62 264.751 1179.72 275.933 1183.9 286.465C1188.09 296.997 1193.78 306.231 1201 314.166C1208.21 321.957 1216.58 328.161 1226.1 332.778C1235.62 337.251 1245.72 339.487 1256.4 339.487C1267.08 339.487 1277.18 337.251 1286.7 332.778C1296.22 328.161 1304.52 321.957 1311.59 314.166C1318.8 306.231 1324.43 296.997 1328.47 286.465C1332.65 275.933 1334.74 264.751 1334.74 252.92C1334.74 241.09 1332.65 229.908 1328.47 219.376C1324.43 208.844 1318.8 199.682 1311.59 191.891C1304.52 183.956 1296.22 177.752 1286.7 173.279C1277.18 168.662 1267.08 166.354 1256.4 166.354C1245.72 166.354 1235.62 168.662 1226.1 173.279C1216.58 177.752 1208.21 183.956 1201 191.891C1193.78 199.682 1188.09 208.844 1183.9 219.376C1179.72 229.908 1177.62 241.09 1177.62 252.92Z" fill="white"/>
<path d="M1410.84 158.563C1410.84 151.926 1414.02 148.608 1420.37 148.608H1425.13C1432.2 148.608 1435.73 151.926 1435.73 158.563V181.07C1437.75 175.876 1440.57 171.115 1444.17 166.787C1447.92 162.314 1452.18 158.563 1456.94 155.533C1461.85 152.359 1467.26 149.906 1473.17 148.175C1479.23 146.443 1485.65 145.578 1492.43 145.578C1496.76 145.578 1501.59 146.155 1506.93 147.309C1512.27 148.463 1517.25 149.978 1521.87 151.854C1526.63 153.729 1530.59 155.894 1533.77 158.346C1536.94 160.655 1538.53 163.035 1538.53 165.488C1538.53 166.931 1538.1 168.59 1537.23 170.466C1536.37 172.341 1535.28 174.145 1533.99 175.876C1532.83 177.607 1531.6 179.05 1530.31 180.204C1529.01 181.359 1527.93 181.936 1527.06 181.936C1525.91 181.936 1524.97 181.936 1524.25 181.936C1523.67 181.791 1522.95 181.431 1522.08 180.854C1517.9 178.257 1513.07 175.876 1507.58 173.712C1502.1 171.548 1496.55 170.466 1490.92 170.466C1482.84 170.466 1475.41 172.341 1468.63 176.093C1461.99 179.699 1456.22 184.605 1451.31 190.809C1446.55 196.869 1442.73 203.866 1439.84 211.801C1437.1 219.592 1435.73 227.672 1435.73 236.04L1435.95 353.121C1435.95 358.315 1433.28 360.912 1427.94 360.912H1419.07C1413.59 360.912 1410.84 358.315 1410.84 353.121V158.563Z" fill="white"/>
<path d="M1672.85 342.084C1682.38 342.084 1691.54 340.713 1700.34 337.972C1709.14 335.087 1717.22 330.903 1724.58 325.42C1726.45 323.977 1728.55 322.39 1730.85 320.659C1733.16 318.928 1735.11 317.918 1736.7 317.629C1737.85 317.629 1739.08 318.206 1740.38 319.36C1741.67 320.515 1742.9 321.957 1744.05 323.689C1745.21 325.276 1746.15 327.079 1746.87 329.099C1747.73 331.119 1748.17 332.995 1748.17 334.726C1746.87 336.89 1745.14 338.91 1742.97 340.786C1740.95 342.661 1738.93 344.32 1736.91 345.763C1727.82 351.967 1718.01 356.873 1707.48 360.48C1696.95 363.942 1685.55 365.674 1673.29 365.674C1657.99 365.674 1643.57 362.788 1630 357.017C1616.59 351.246 1604.83 343.383 1594.73 333.427C1584.77 323.472 1576.91 311.786 1571.14 298.368C1565.37 284.95 1562.48 270.594 1562.48 255.301C1562.48 240.008 1565.29 225.652 1570.92 212.234C1576.55 198.672 1584.2 186.913 1593.86 176.958C1603.53 166.859 1614.78 158.923 1627.62 153.152C1640.61 147.381 1654.46 144.496 1669.17 144.496C1683.31 144.496 1696.59 147.237 1709 152.72C1721.55 158.202 1732.51 165.777 1741.89 175.443C1751.27 185.11 1758.7 196.58 1764.18 209.854C1769.66 222.983 1772.41 237.194 1772.41 252.488C1772.41 257.104 1771.03 260.134 1768.29 261.577C1765.55 262.876 1762.09 263.525 1757.91 263.525H1586.94C1587.8 274.634 1590.62 285.022 1595.38 294.689C1600.28 304.211 1606.56 312.507 1614.2 319.577C1622 326.502 1630.87 331.985 1640.82 336.024C1650.92 340.064 1661.6 342.084 1672.85 342.084ZM1748.6 242.1C1747.45 231.856 1744.56 222.261 1739.94 213.316C1735.47 204.227 1729.63 196.364 1722.41 189.727C1715.34 183.09 1707.19 177.896 1697.96 174.145C1688.87 170.249 1679.2 168.302 1668.96 168.302C1658.71 168.302 1648.98 170.177 1639.74 173.928C1630.51 177.68 1622.21 182.874 1614.85 189.51C1607.64 196.147 1601.58 204.01 1596.68 213.1C1591.77 222.045 1588.52 231.712 1586.94 242.1H1748.6Z" fill="white"/>
<path d="M1849.76 353.121C1849.76 358.315 1847.09 360.912 1841.75 360.912H1832.88C1827.4 360.912 1824.66 358.315 1824.66 353.121V154.884C1824.66 152.864 1825.23 151.205 1826.39 149.906C1827.54 148.608 1829.2 147.958 1831.37 147.958H1844.13C1845.43 147.958 1846.51 148.391 1847.38 149.257C1848.39 150.123 1848.97 151.277 1849.11 152.72L1849.76 182.152C1853.37 176.814 1857.62 171.836 1862.53 167.219C1867.43 162.603 1872.85 158.635 1878.76 155.317C1884.68 151.854 1890.95 149.185 1897.59 147.309C1904.37 145.289 1911.44 144.279 1918.8 144.279C1931.21 144.279 1942.68 146.588 1953.21 151.205C1963.88 155.821 1973.12 162.17 1980.91 170.249C1988.7 178.329 1994.83 187.851 1999.3 198.816C2003.78 209.637 2006.01 221.251 2006.01 233.659V352.256C2006.01 355.141 2005.22 357.305 2003.63 358.748C2002.19 360.191 2000.17 360.912 1997.57 360.912H1988.7C1985.81 360.912 1983.79 360.263 1982.64 358.965C1981.49 357.522 1980.91 355.358 1980.91 352.472V233.227C1980.77 224.281 1978.96 215.913 1975.5 208.122C1972.04 200.331 1967.35 193.55 1961.43 187.779C1955.66 182.008 1948.88 177.463 1941.09 174.145C1933.3 170.826 1925 169.167 1916.2 169.167C1907.54 169.167 1899.25 170.754 1891.31 173.928C1883.52 177.102 1876.6 181.503 1870.54 187.13C1864.48 192.612 1859.57 199.177 1855.82 206.824C1852.21 214.326 1850.19 222.478 1849.76 231.279V353.121Z" fill="white"/>
<path d="M2253.94 351.823C2253.94 357.738 2250.91 360.696 2244.85 360.696H2238.36C2232.01 360.696 2228.84 357.738 2228.84 351.823V324.771C2226.96 328.089 2224.15 332.057 2220.4 336.674C2216.79 341.291 2211.81 345.763 2205.47 350.092C2199.26 354.42 2191.61 358.099 2182.53 361.129C2173.44 364.159 2162.54 365.674 2149.85 365.674C2135.71 365.674 2122.43 362.788 2110.03 357.017C2097.76 351.246 2087.01 343.383 2077.78 333.427C2068.55 323.472 2061.26 311.786 2055.92 298.368C2050.73 284.95 2048.13 270.522 2048.13 255.085C2048.13 239.791 2050.73 225.435 2055.92 212.018C2061.26 198.6 2068.55 186.913 2077.78 176.958C2087.01 166.859 2097.76 158.923 2110.03 153.152C2122.43 147.381 2135.71 144.496 2149.85 144.496C2159.8 144.496 2168.89 145.794 2177.11 148.391C2185.48 150.988 2192.91 154.595 2199.41 159.212C2205.9 163.685 2211.6 168.951 2216.5 175.01C2221.41 181.07 2225.52 187.563 2228.84 194.488V48.1903C2228.84 45.5933 2229.63 43.5734 2231.22 42.1306C2232.81 40.5435 2235.11 39.75 2238.14 39.75H2244.42C2247.45 39.75 2249.76 40.5435 2251.35 42.1306C2253.08 43.5734 2253.94 45.5933 2253.94 48.1903V351.823ZM2230.35 255.301C2230.35 243.47 2228.26 232.289 2224.08 221.756C2219.89 211.224 2214.19 202.063 2206.98 194.272C2199.77 186.336 2191.4 180.132 2181.88 175.66C2172.35 171.043 2162.25 168.734 2151.58 168.734C2140.9 168.734 2130.8 171.043 2121.28 175.66C2111.76 180.132 2103.39 186.336 2096.18 194.272C2089.11 202.063 2083.48 211.224 2079.29 221.756C2075.25 232.289 2073.23 243.47 2073.23 255.301C2073.23 267.132 2075.25 278.313 2079.29 288.846C2083.48 299.378 2089.11 308.612 2096.18 316.547C2103.39 324.338 2111.76 330.542 2121.28 335.159C2130.8 339.631 2140.9 341.868 2151.58 341.868C2162.25 341.868 2172.35 339.631 2181.88 335.159C2191.4 330.542 2199.77 324.338 2206.98 316.547C2214.19 308.612 2219.89 299.378 2224.08 288.846C2228.26 278.313 2230.35 267.132 2230.35 255.301Z" fill="white"/>
<path d="M2425.24 342.084C2434.76 342.084 2443.92 340.713 2452.72 337.972C2461.53 335.087 2469.61 330.903 2476.96 325.42C2478.84 323.977 2480.93 322.39 2483.24 320.659C2485.55 318.928 2487.5 317.918 2489.08 317.629C2490.24 317.629 2491.46 318.206 2492.76 319.36C2494.06 320.515 2495.29 321.957 2496.44 323.689C2497.6 325.276 2498.53 327.079 2499.25 329.099C2500.12 331.119 2500.55 332.995 2500.55 334.726C2499.25 336.89 2497.52 338.91 2495.36 340.786C2493.34 342.661 2491.32 344.32 2489.3 345.763C2480.21 351.967 2470.4 356.873 2459.87 360.48C2449.33 363.942 2437.94 365.674 2425.67 365.674C2410.38 365.674 2395.95 362.788 2382.39 357.017C2368.97 351.246 2357.21 343.383 2347.11 333.427C2337.16 323.472 2329.3 311.786 2323.52 298.368C2317.75 284.95 2314.87 270.594 2314.87 255.301C2314.87 240.008 2317.68 225.652 2323.31 212.234C2328.93 198.672 2336.58 186.913 2346.25 176.958C2355.91 166.859 2367.17 158.923 2380.01 153.152C2392.99 147.381 2406.84 144.496 2421.56 144.496C2435.7 144.496 2448.97 147.237 2461.38 152.72C2473.93 158.202 2484.9 165.777 2494.28 175.443C2503.65 185.11 2511.09 196.58 2516.57 209.854C2522.05 222.983 2524.79 237.194 2524.79 252.488C2524.79 257.104 2523.42 260.134 2520.68 261.577C2517.94 262.876 2514.48 263.525 2510.29 263.525H2339.32C2340.19 274.634 2343 285.022 2347.76 294.689C2352.67 304.211 2358.94 312.507 2366.59 319.577C2374.38 326.502 2383.26 331.985 2393.21 336.024C2403.31 340.064 2413.99 342.084 2425.24 342.084ZM2500.99 242.1C2499.83 231.856 2496.95 222.261 2492.33 213.316C2487.86 204.227 2482.01 196.364 2474.8 189.727C2467.73 183.09 2459.58 177.896 2450.34 174.145C2441.25 170.249 2431.59 168.302 2421.34 168.302C2411.1 168.302 2401.36 170.177 2392.13 173.928C2382.89 177.68 2374.6 182.874 2367.24 189.51C2360.03 196.147 2353.97 204.01 2349.06 213.1C2344.16 222.045 2340.91 231.712 2339.32 242.1H2500.99Z" fill="white"/>
<path d="M815.688 353.121C815.688 358.315 813.019 360.912 807.681 360.912H798.808C793.325 360.912 790.584 358.315 790.584 353.121V154.884C790.584 152.864 791.161 151.205 792.315 149.906C793.47 148.608 795.129 147.958 797.293 147.958H810.061C813.091 147.958 814.751 149.545 815.039 152.72L815.688 178.473C818.862 174 822.397 169.816 826.293 165.921C830.333 161.881 834.805 158.418 839.711 155.533C844.616 152.647 849.882 150.339 855.509 148.608C861.28 146.876 867.484 146.011 874.121 146.011C882.345 146.011 890.064 147.165 897.277 149.473C904.491 151.637 911.056 154.739 916.971 158.779C923.031 162.675 928.369 167.364 932.986 172.846C937.603 178.185 941.426 184.1 944.456 190.592C947.486 183.956 951.237 177.896 955.71 172.413C960.183 166.787 965.232 162.025 970.859 158.13C976.63 154.09 982.978 150.988 989.904 148.824C996.829 146.66 1004.26 145.578 1012.19 145.578C1022.44 145.578 1031.96 147.381 1040.76 150.988C1049.71 154.595 1057.57 159.573 1064.35 165.921C1071.28 172.125 1076.9 179.483 1081.23 187.995C1085.56 196.508 1088.3 205.742 1089.46 215.697C1090.32 223.343 1090.75 230.918 1090.75 238.421V352.256C1090.75 355.141 1089.96 357.305 1088.37 358.748C1086.79 360.191 1084.69 360.912 1082.1 360.912H1074.31C1068.39 360.912 1065.43 358.099 1065.43 352.472V226.95C1065.29 219.159 1063.85 211.801 1061.1 204.876C1058.51 197.951 1054.83 191.963 1050.07 186.913C1045.31 181.864 1039.61 177.896 1032.97 175.01C1026.33 171.981 1019.12 170.466 1011.33 170.466C1004.55 170.466 998.055 171.62 991.852 173.928C985.648 176.237 980.021 179.411 974.971 183.451C970.066 187.49 965.882 192.324 962.419 197.951C959.1 203.577 956.792 209.637 955.494 216.13C954.772 219.592 954.195 223.127 953.762 226.734C953.329 230.341 953.113 234.02 953.113 237.771V352.256C953.113 358.027 950.372 360.912 944.889 360.912H936.232C930.75 360.912 928.009 358.099 928.009 352.472V226.301C927.864 218.51 926.277 211.224 923.247 204.443C920.362 197.662 916.394 191.747 911.344 186.697C906.439 181.647 900.668 177.68 894.031 174.794C887.394 171.908 880.18 170.466 872.389 170.466C864.598 170.466 857.24 171.981 850.315 175.01C843.39 177.896 837.33 181.936 832.136 187.13C827.086 192.324 823.046 198.383 820.017 205.309C817.131 212.234 815.688 219.664 815.688 227.6V353.121Z" stroke="white" stroke-width="4.41667"/>
<path d="M1154.04 156.399C1154.04 150.483 1157.07 147.525 1163.12 147.525H1169.62C1175.97 147.525 1179.14 150.483 1179.14 156.399V183.451C1181.02 180.277 1183.76 176.381 1187.36 171.764C1191.11 167.003 1196.09 162.458 1202.3 158.13C1208.64 153.802 1216.36 150.123 1225.45 147.093C1234.54 144.063 1245.44 142.548 1258.13 142.548C1272.27 142.548 1285.47 145.433 1297.74 151.205C1310.14 156.976 1320.96 164.839 1330.2 174.794C1339.43 184.749 1346.65 196.508 1351.84 210.07C1357.18 223.488 1359.85 237.843 1359.85 253.137C1359.85 268.43 1357.18 282.786 1351.84 296.204C1346.65 309.622 1339.43 321.38 1330.2 331.48C1320.96 341.435 1310.14 349.298 1297.74 355.069C1285.47 360.84 1272.27 363.726 1258.13 363.726C1248.18 363.726 1239.02 362.427 1230.65 359.83C1222.42 357.233 1215.06 353.698 1208.57 349.226C1202.08 344.609 1196.38 339.271 1191.48 333.211C1186.57 327.151 1182.46 320.659 1179.14 313.734V436.442C1179.14 439.039 1178.35 441.059 1176.76 442.501C1175.17 444.088 1172.86 444.882 1169.83 444.882H1163.56C1160.53 444.882 1158.15 444.088 1156.42 442.501C1154.83 441.059 1154.04 439.039 1154.04 436.442V156.399ZM1177.62 252.92C1177.62 264.751 1179.72 275.933 1183.9 286.465C1188.09 296.997 1193.78 306.231 1201 314.166C1208.21 321.957 1216.58 328.161 1226.1 332.778C1235.62 337.251 1245.72 339.487 1256.4 339.487C1267.08 339.487 1277.18 337.251 1286.7 332.778C1296.22 328.161 1304.52 321.957 1311.59 314.166C1318.8 306.231 1324.43 296.997 1328.47 286.465C1332.65 275.933 1334.74 264.751 1334.74 252.92C1334.74 241.09 1332.65 229.908 1328.47 219.376C1324.43 208.844 1318.8 199.682 1311.59 191.891C1304.52 183.956 1296.22 177.752 1286.7 173.279C1277.18 168.662 1267.08 166.354 1256.4 166.354C1245.72 166.354 1235.62 168.662 1226.1 173.279C1216.58 177.752 1208.21 183.956 1201 191.891C1193.78 199.682 1188.09 208.844 1183.9 219.376C1179.72 229.908 1177.62 241.09 1177.62 252.92Z" stroke="white" stroke-width="4.41667"/>
<path d="M1410.84 158.563C1410.84 151.926 1414.02 148.608 1420.37 148.608H1425.13C1432.2 148.608 1435.73 151.926 1435.73 158.563V181.07C1437.75 175.876 1440.57 171.115 1444.17 166.787C1447.92 162.314 1452.18 158.563 1456.94 155.533C1461.85 152.359 1467.26 149.906 1473.17 148.175C1479.23 146.443 1485.65 145.578 1492.43 145.578C1496.76 145.578 1501.59 146.155 1506.93 147.309C1512.27 148.463 1517.25 149.978 1521.87 151.854C1526.63 153.729 1530.59 155.894 1533.77 158.346C1536.94 160.655 1538.53 163.035 1538.53 165.488C1538.53 166.931 1538.1 168.59 1537.23 170.466C1536.37 172.341 1535.28 174.145 1533.99 175.876C1532.83 177.607 1531.6 179.05 1530.31 180.204C1529.01 181.359 1527.93 181.936 1527.06 181.936C1525.91 181.936 1524.97 181.936 1524.25 181.936C1523.67 181.791 1522.95 181.431 1522.08 180.854C1517.9 178.257 1513.07 175.876 1507.58 173.712C1502.1 171.548 1496.55 170.466 1490.92 170.466C1482.84 170.466 1475.41 172.341 1468.63 176.093C1461.99 179.699 1456.22 184.605 1451.31 190.809C1446.55 196.869 1442.73 203.866 1439.84 211.801C1437.1 219.592 1435.73 227.672 1435.73 236.04L1435.95 353.121C1435.95 358.315 1433.28 360.912 1427.94 360.912H1419.07C1413.59 360.912 1410.84 358.315 1410.84 353.121V158.563Z" stroke="white" stroke-width="4.41667"/>
<path d="M1672.85 342.084C1682.38 342.084 1691.54 340.713 1700.34 337.972C1709.14 335.087 1717.22 330.903 1724.58 325.42C1726.45 323.977 1728.55 322.39 1730.85 320.659C1733.16 318.928 1735.11 317.918 1736.7 317.629C1737.85 317.629 1739.08 318.206 1740.38 319.36C1741.67 320.515 1742.9 321.957 1744.05 323.689C1745.21 325.276 1746.15 327.079 1746.87 329.099C1747.73 331.119 1748.17 332.995 1748.17 334.726C1746.87 336.89 1745.14 338.91 1742.97 340.786C1740.95 342.661 1738.93 344.32 1736.91 345.763C1727.82 351.967 1718.01 356.873 1707.48 360.48C1696.95 363.942 1685.55 365.674 1673.29 365.674C1657.99 365.674 1643.57 362.788 1630 357.017C1616.59 351.246 1604.83 343.383 1594.73 333.427C1584.77 323.472 1576.91 311.786 1571.14 298.368C1565.37 284.95 1562.48 270.594 1562.48 255.301C1562.48 240.008 1565.29 225.652 1570.92 212.234C1576.55 198.672 1584.2 186.913 1593.86 176.958C1603.53 166.859 1614.78 158.923 1627.62 153.152C1640.61 147.381 1654.46 144.496 1669.17 144.496C1683.31 144.496 1696.59 147.237 1709 152.72C1721.55 158.202 1732.51 165.777 1741.89 175.443C1751.27 185.11 1758.7 196.58 1764.18 209.854C1769.66 222.983 1772.41 237.194 1772.41 252.488C1772.41 257.104 1771.03 260.134 1768.29 261.577C1765.55 262.876 1762.09 263.525 1757.91 263.525H1586.94C1587.8 274.634 1590.62 285.022 1595.38 294.689C1600.28 304.211 1606.56 312.507 1614.2 319.577C1622 326.502 1630.87 331.985 1640.82 336.024C1650.92 340.064 1661.6 342.084 1672.85 342.084ZM1748.6 242.1C1747.45 231.856 1744.56 222.261 1739.94 213.316C1735.47 204.227 1729.63 196.364 1722.41 189.727C1715.34 183.09 1707.19 177.896 1697.96 174.145C1688.87 170.249 1679.2 168.302 1668.96 168.302C1658.71 168.302 1648.98 170.177 1639.74 173.928C1630.51 177.68 1622.21 182.874 1614.85 189.51C1607.64 196.147 1601.58 204.01 1596.68 213.1C1591.77 222.045 1588.52 231.712 1586.94 242.1H1748.6Z" stroke="white" stroke-width="4.41667"/>
<path d="M1849.76 353.121C1849.76 358.315 1847.09 360.912 1841.75 360.912H1832.88C1827.4 360.912 1824.66 358.315 1824.66 353.121V154.884C1824.66 152.864 1825.23 151.205 1826.39 149.906C1827.54 148.608 1829.2 147.958 1831.37 147.958H1844.13C1845.43 147.958 1846.51 148.391 1847.38 149.257C1848.39 150.123 1848.97 151.277 1849.11 152.72L1849.76 182.152C1853.37 176.814 1857.62 171.836 1862.53 167.219C1867.43 162.603 1872.85 158.635 1878.76 155.317C1884.68 151.854 1890.95 149.185 1897.59 147.309C1904.37 145.289 1911.44 144.279 1918.8 144.279C1931.21 144.279 1942.68 146.588 1953.21 151.205C1963.88 155.821 1973.12 162.17 1980.91 170.249C1988.7 178.329 1994.83 187.851 1999.3 198.816C2003.78 209.637 2006.01 221.251 2006.01 233.659V352.256C2006.01 355.141 2005.22 357.305 2003.63 358.748C2002.19 360.191 2000.17 360.912 1997.57 360.912H1988.7C1985.81 360.912 1983.79 360.263 1982.64 358.965C1981.49 357.522 1980.91 355.358 1980.91 352.472V233.227C1980.77 224.281 1978.96 215.913 1975.5 208.122C1972.04 200.331 1967.35 193.55 1961.43 187.779C1955.66 182.008 1948.88 177.463 1941.09 174.145C1933.3 170.826 1925 169.167 1916.2 169.167C1907.54 169.167 1899.25 170.754 1891.31 173.928C1883.52 177.102 1876.6 181.503 1870.54 187.13C1864.48 192.612 1859.57 199.177 1855.82 206.824C1852.21 214.326 1850.19 222.478 1849.76 231.279V353.121Z" stroke="white" stroke-width="4.41667"/>
<path d="M2253.94 351.823C2253.94 357.738 2250.91 360.696 2244.85 360.696H2238.36C2232.01 360.696 2228.84 357.738 2228.84 351.823V324.771C2226.96 328.089 2224.15 332.057 2220.4 336.674C2216.79 341.291 2211.81 345.763 2205.47 350.092C2199.26 354.42 2191.61 358.099 2182.53 361.129C2173.44 364.159 2162.54 365.674 2149.85 365.674C2135.71 365.674 2122.43 362.788 2110.03 357.017C2097.76 351.246 2087.01 343.383 2077.78 333.427C2068.55 323.472 2061.26 311.786 2055.92 298.368C2050.73 284.95 2048.13 270.522 2048.13 255.085C2048.13 239.791 2050.73 225.435 2055.92 212.018C2061.26 198.6 2068.55 186.913 2077.78 176.958C2087.01 166.859 2097.76 158.923 2110.03 153.152C2122.43 147.381 2135.71 144.496 2149.85 144.496C2159.8 144.496 2168.89 145.794 2177.11 148.391C2185.48 150.988 2192.91 154.595 2199.41 159.212C2205.9 163.685 2211.6 168.951 2216.5 175.01C2221.41 181.07 2225.52 187.563 2228.84 194.488V48.1903C2228.84 45.5933 2229.63 43.5734 2231.22 42.1306C2232.81 40.5435 2235.11 39.75 2238.14 39.75H2244.42C2247.45 39.75 2249.76 40.5435 2251.35 42.1306C2253.08 43.5734 2253.94 45.5933 2253.94 48.1903V351.823ZM2230.35 255.301C2230.35 243.47 2228.26 232.289 2224.08 221.756C2219.89 211.224 2214.19 202.063 2206.98 194.272C2199.77 186.336 2191.4 180.132 2181.88 175.66C2172.35 171.043 2162.25 168.734 2151.58 168.734C2140.9 168.734 2130.8 171.043 2121.28 175.66C2111.76 180.132 2103.39 186.336 2096.18 194.272C2089.11 202.063 2083.48 211.224 2079.29 221.756C2075.25 232.289 2073.23 243.47 2073.23 255.301C2073.23 267.132 2075.25 278.313 2079.29 288.846C2083.48 299.378 2089.11 308.612 2096.18 316.547C2103.39 324.338 2111.76 330.542 2121.28 335.159C2130.8 339.631 2140.9 341.868 2151.58 341.868C2162.25 341.868 2172.35 339.631 2181.88 335.159C2191.4 330.542 2199.77 324.338 2206.98 316.547C2214.19 308.612 2219.89 299.378 2224.08 288.846C2228.26 278.313 2230.35 267.132 2230.35 255.301Z" stroke="white" stroke-width="4.41667"/>
<path d="M2425.24 342.084C2434.76 342.084 2443.92 340.713 2452.72 337.972C2461.53 335.087 2469.61 330.903 2476.96 325.42C2478.84 323.977 2480.93 322.39 2483.24 320.659C2485.55 318.928 2487.5 317.918 2489.08 317.629C2490.24 317.629 2491.46 318.206 2492.76 319.36C2494.06 320.515 2495.29 321.957 2496.44 323.689C2497.6 325.276 2498.53 327.079 2499.25 329.099C2500.12 331.119 2500.55 332.995 2500.55 334.726C2499.25 336.89 2497.52 338.91 2495.36 340.786C2493.34 342.661 2491.32 344.32 2489.3 345.763C2480.21 351.967 2470.4 356.873 2459.87 360.48C2449.33 363.942 2437.94 365.674 2425.67 365.674C2410.38 365.674 2395.95 362.788 2382.39 357.017C2368.97 351.246 2357.21 343.383 2347.11 333.427C2337.16 323.472 2329.3 311.786 2323.52 298.368C2317.75 284.95 2314.87 270.594 2314.87 255.301C2314.87 240.008 2317.68 225.652 2323.31 212.234C2328.93 198.672 2336.58 186.913 2346.25 176.958C2355.91 166.859 2367.17 158.923 2380.01 153.152C2392.99 147.381 2406.84 144.496 2421.56 144.496C2435.7 144.496 2448.97 147.237 2461.38 152.72C2473.93 158.202 2484.9 165.777 2494.28 175.443C2503.65 185.11 2511.09 196.58 2516.57 209.854C2522.05 222.983 2524.79 237.194 2524.79 252.488C2524.79 257.104 2523.42 260.134 2520.68 261.577C2517.94 262.876 2514.48 263.525 2510.29 263.525H2339.32C2340.19 274.634 2343 285.022 2347.76 294.689C2352.67 304.211 2358.94 312.507 2366.59 319.577C2374.38 326.502 2383.26 331.985 2393.21 336.024C2403.31 340.064 2413.99 342.084 2425.24 342.084ZM2500.99 242.1C2499.83 231.856 2496.95 222.261 2492.33 213.316C2487.86 204.227 2482.01 196.364 2474.8 189.727C2467.73 183.09 2459.58 177.896 2450.34 174.145C2441.25 170.249 2431.59 168.302 2421.34 168.302C2411.1 168.302 2401.36 170.177 2392.13 173.928C2382.89 177.68 2374.6 182.874 2367.24 189.51C2360.03 196.147 2353.97 204.01 2349.06 213.1C2344.16 222.045 2340.91 231.712 2339.32 242.1H2500.99Z" stroke="white" stroke-width="4.41667"/>
<path d="M670.04 332.362C678.74 328.489 686.552 323.51 693.477 317.426C700.343 311.211 706.022 304.102 710.514 296.101C711.641 294.02 712.907 291.719 714.311 289.198C715.716 286.678 717.085 284.963 718.417 284.054C719.472 283.584 720.827 283.613 722.482 284.139C724.138 284.665 725.845 285.485 727.604 286.597C729.304 287.577 730.894 288.843 732.375 290.395C733.987 291.888 735.145 293.426 735.85 295.007C735.544 297.513 734.783 300.062 733.569 302.656C732.487 305.191 731.316 307.528 730.058 309.668C724.278 319.032 717.31 327.504 709.156 335.083C700.942 342.53 691.234 348.748 680.031 353.736C666.059 359.956 651.705 363.189 636.968 363.433C622.363 363.618 608.423 361.217 595.147 356.231C582.004 351.185 570.067 343.707 559.337 333.797C548.608 323.886 540.133 311.945 533.912 297.974C527.692 284.003 524.423 269.744 524.106 255.198C523.73 240.519 525.933 226.667 530.715 213.641C535.438 200.483 542.491 188.656 551.874 178.161C561.389 167.608 572.869 159.338 586.313 153.352C599.23 147.601 612.471 144.707 626.036 144.669C639.733 144.572 652.831 147.032 665.33 152.048C677.829 157.065 689.282 164.521 699.69 174.417C710.038 184.181 718.323 196.049 724.543 210.02C726.421 214.238 726.401 217.563 724.484 219.996C722.508 222.298 719.609 224.299 715.786 226.001L559.598 295.54C564.908 305.337 571.703 313.683 579.984 320.577C588.339 327.281 597.446 332.307 607.307 335.655C617.242 338.813 627.578 340.212 638.315 339.854C649.185 339.437 659.76 336.939 670.04 332.362ZM698.57 210.213C693.349 201.324 686.811 193.733 678.955 187.439C671.172 180.955 662.636 176.148 653.346 173.019C644.188 169.831 634.629 168.402 624.667 168.731C614.779 168.869 605.156 171.022 595.798 175.188C586.44 179.355 578.306 185.029 571.396 192.212C564.487 199.394 559.02 207.514 554.998 216.57C551.107 225.567 548.769 235.215 547.985 245.514C547.142 255.681 548.108 265.832 550.884 275.967L698.57 210.213Z" fill="white" stroke="white" stroke-width="4.41667"/>
<path d="M2336.42 441.585C2336.42 440.985 2336.52 440.417 2336.74 439.88C2336.96 439.344 2337.25 438.886 2337.62 438.507C2338.02 438.097 2338.48 437.781 2339.01 437.56C2339.53 437.307 2340.08 437.181 2340.67 437.181C2341.29 437.181 2341.86 437.307 2342.38 437.56C2342.9 437.781 2343.35 438.097 2343.72 438.507C2344.12 438.886 2344.43 439.344 2344.65 439.88C2344.86 440.417 2344.97 440.985 2344.97 441.585C2344.97 442.185 2344.86 442.753 2344.65 443.29C2344.43 443.826 2344.12 444.3 2343.72 444.71C2343.35 445.089 2342.9 445.389 2342.38 445.61C2341.86 445.862 2341.29 445.989 2340.67 445.989C2340.08 445.989 2339.53 445.862 2339.01 445.61C2338.48 445.389 2338.02 445.089 2337.62 444.71C2337.25 444.3 2336.96 443.826 2336.74 443.29C2336.52 442.753 2336.42 442.185 2336.42 441.585Z" fill="white"/>
<path d="M2394.69 434.908C2395.18 434.466 2395.63 434.245 2396.03 434.245C2396.21 434.245 2396.41 434.293 2396.63 434.387C2396.85 434.482 2397.05 434.656 2397.23 434.908L2398.43 436.518C2398.68 436.865 2398.8 437.165 2398.8 437.418C2398.83 437.67 2398.74 437.939 2398.53 438.223C2398.31 438.475 2397.99 438.823 2397.56 439.265C2395.4 441.348 2392.99 443.005 2390.34 444.237C2387.72 445.436 2384.83 446.036 2381.65 446.036C2378.35 446.036 2375.32 445.405 2372.54 444.142C2369.77 442.879 2367.36 441.143 2365.33 438.933C2363.29 436.723 2361.71 434.151 2360.57 431.215C2359.43 428.279 2358.86 425.122 2358.86 421.744C2358.86 418.398 2359.43 415.257 2360.57 412.321C2361.71 409.354 2363.29 406.781 2365.33 404.603C2367.36 402.393 2369.77 400.657 2372.54 399.394C2375.32 398.131 2378.35 397.5 2381.65 397.5C2384.64 397.5 2387.41 398.037 2389.97 399.11C2392.53 400.152 2394.86 401.62 2396.95 403.514C2397.29 403.766 2397.62 404.082 2397.93 404.461C2398.23 404.808 2398.39 405.171 2398.39 405.55C2398.39 405.929 2398.25 406.276 2397.97 406.592L2397 407.87C2396.72 408.217 2396.48 408.486 2396.26 408.675C2396.08 408.833 2395.86 408.912 2395.61 408.912C2395.21 408.912 2394.78 408.675 2394.32 408.202C2392.65 406.528 2390.76 405.218 2388.63 404.271C2386.54 403.293 2384.24 402.803 2381.74 402.803C2379.18 402.803 2376.83 403.309 2374.67 404.319C2372.54 405.297 2370.69 406.655 2369.12 408.391C2367.58 410.096 2366.36 412.1 2365.47 414.405C2364.6 416.709 2364.17 419.156 2364.17 421.744C2364.17 424.364 2364.6 426.827 2365.47 429.131C2366.36 431.404 2367.58 433.409 2369.12 435.145C2370.69 436.881 2372.54 438.254 2374.67 439.265C2376.83 440.243 2379.18 440.733 2381.74 440.733C2382.98 440.733 2384.18 440.59 2385.35 440.306C2386.55 439.991 2387.71 439.565 2388.82 439.028C2389.93 438.491 2390.97 437.876 2391.96 437.181C2392.95 436.487 2393.86 435.729 2394.69 434.908Z" fill="white"/>
<path d="M2403.43 421.886C2403.43 418.54 2404.05 415.399 2405.28 412.463C2406.51 409.496 2408.19 406.923 2410.32 404.745C2412.45 402.535 2414.94 400.799 2417.81 399.536C2420.68 398.273 2423.74 397.642 2427.01 397.642C2430.28 397.642 2433.35 398.273 2436.21 399.536C2439.11 400.799 2441.62 402.535 2443.75 404.745C2445.91 406.923 2447.6 409.496 2448.83 412.463C2450.07 415.399 2450.68 418.54 2450.68 421.886C2450.68 425.233 2450.07 428.374 2448.83 431.309C2447.6 434.245 2445.91 436.818 2443.75 439.028C2441.62 441.206 2439.11 442.927 2436.21 444.189C2433.35 445.452 2430.28 446.083 2427.01 446.083C2423.74 446.083 2420.68 445.452 2417.81 444.189C2414.94 442.927 2412.45 441.206 2410.32 439.028C2408.19 436.818 2406.51 434.245 2405.28 431.309C2404.05 428.374 2403.43 425.233 2403.43 421.886ZM2408.52 421.886C2408.52 424.507 2409.01 426.969 2410 429.273C2410.98 431.546 2412.31 433.551 2413.97 435.287C2415.67 437.023 2417.64 438.396 2419.89 439.407C2422.14 440.385 2424.54 440.875 2427.1 440.875C2429.63 440.875 2432.02 440.385 2434.27 439.407C2436.55 438.396 2438.52 437.023 2440.19 435.287C2441.88 433.551 2443.22 431.546 2444.21 429.273C2445.2 426.969 2445.69 424.507 2445.69 421.886C2445.69 419.266 2445.2 416.804 2444.21 414.499C2443.22 412.163 2441.88 410.143 2440.19 408.438C2438.52 406.702 2436.55 405.329 2434.27 404.319C2432.02 403.309 2429.63 402.803 2427.1 402.803C2424.54 402.803 2422.14 403.309 2419.89 404.319C2417.64 405.329 2415.67 406.702 2413.97 408.438C2412.31 410.143 2410.98 412.163 2410 414.499C2409.01 416.804 2408.52 419.266 2408.52 421.886Z" fill="white"/>
<path d="M2467.57 443.29C2467.57 444.426 2467 444.994 2465.86 444.994H2463.96C2462.79 444.994 2462.2 444.426 2462.2 443.29V399.915C2462.2 399.473 2462.33 399.11 2462.57 398.826C2462.82 398.542 2463.17 398.4 2463.64 398.4H2466.37C2467.01 398.4 2467.37 398.747 2467.43 399.441L2467.57 405.076C2468.25 404.098 2469 403.182 2469.83 402.33C2470.7 401.446 2471.65 400.688 2472.7 400.057C2473.75 399.426 2474.87 398.921 2476.07 398.542C2477.31 398.163 2478.63 397.974 2480.05 397.974C2481.81 397.974 2483.46 398.226 2485 398.731C2486.54 399.205 2487.94 399.883 2489.21 400.767C2490.5 401.62 2491.64 402.646 2492.63 403.845C2493.61 405.013 2494.43 406.308 2495.08 407.728C2495.72 406.276 2496.53 404.95 2497.48 403.75C2498.44 402.519 2499.52 401.478 2500.72 400.625C2501.95 399.741 2503.31 399.063 2504.79 398.589C2506.27 398.116 2507.85 397.879 2509.55 397.879C2511.74 397.879 2513.77 398.273 2515.65 399.063C2517.56 399.852 2519.24 400.941 2520.69 402.33C2522.17 403.687 2523.37 405.297 2524.3 407.16C2525.22 409.022 2525.81 411.043 2526.06 413.221C2526.24 414.894 2526.33 416.551 2526.33 418.193V443.1C2526.33 443.732 2526.16 444.205 2525.82 444.521C2525.49 444.836 2525.04 444.994 2524.48 444.994H2522.82C2521.56 444.994 2520.92 444.379 2520.92 443.147V415.683C2520.89 413.979 2520.58 412.369 2520 410.853C2519.44 409.338 2518.66 408.028 2517.64 406.923C2516.62 405.818 2515.41 404.95 2513.99 404.319C2512.57 403.656 2511.03 403.324 2509.36 403.324C2507.92 403.324 2506.53 403.577 2505.2 404.082C2503.88 404.587 2502.68 405.282 2501.6 406.165C2500.55 407.049 2499.65 408.107 2498.92 409.338C2498.21 410.569 2497.71 411.895 2497.44 413.316C2497.28 414.073 2497.16 414.847 2497.07 415.636C2496.97 416.425 2496.93 417.23 2496.93 418.051V443.1C2496.93 444.363 2496.34 444.994 2495.17 444.994H2493.32C2492.15 444.994 2491.56 444.379 2491.56 443.147V415.541C2491.53 413.836 2491.19 412.242 2490.55 410.759C2489.93 409.275 2489.08 407.981 2488 406.876C2486.96 405.771 2485.72 404.903 2484.3 404.271C2482.89 403.64 2481.35 403.324 2479.68 403.324C2478.02 403.324 2476.44 403.656 2474.97 404.319C2473.49 404.95 2472.19 405.834 2471.08 406.97C2470 408.107 2469.14 409.433 2468.49 410.948C2467.88 412.463 2467.57 414.089 2467.57 415.825V443.29Z" fill="white"/>
<path d="M2336.42 441.585C2336.42 440.985 2336.52 440.417 2336.74 439.88C2336.96 439.344 2337.25 438.886 2337.62 438.507C2338.02 438.097 2338.48 437.781 2339.01 437.56C2339.53 437.307 2340.08 437.181 2340.67 437.181C2341.29 437.181 2341.86 437.307 2342.38 437.56C2342.9 437.781 2343.35 438.097 2343.72 438.507C2344.12 438.886 2344.43 439.344 2344.65 439.88C2344.86 440.417 2344.97 440.985 2344.97 441.585C2344.97 442.185 2344.86 442.753 2344.65 443.29C2344.43 443.826 2344.12 444.3 2343.72 444.71C2343.35 445.089 2342.9 445.389 2342.38 445.61C2341.86 445.862 2341.29 445.989 2340.67 445.989C2340.08 445.989 2339.53 445.862 2339.01 445.61C2338.48 445.389 2338.02 445.089 2337.62 444.71C2337.25 444.3 2336.96 443.826 2336.74 443.29C2336.52 442.753 2336.42 442.185 2336.42 441.585Z" stroke="white" stroke-width="2.65"/>
<path d="M2394.69 434.908C2395.18 434.466 2395.63 434.245 2396.03 434.245C2396.21 434.245 2396.41 434.293 2396.63 434.387C2396.85 434.482 2397.05 434.656 2397.23 434.908L2398.43 436.518C2398.68 436.865 2398.8 437.165 2398.8 437.418C2398.83 437.67 2398.74 437.939 2398.53 438.223C2398.31 438.475 2397.99 438.823 2397.56 439.265C2395.4 441.348 2392.99 443.005 2390.34 444.237C2387.72 445.436 2384.83 446.036 2381.65 446.036C2378.35 446.036 2375.32 445.405 2372.54 444.142C2369.77 442.879 2367.36 441.143 2365.33 438.933C2363.29 436.723 2361.71 434.151 2360.57 431.215C2359.43 428.279 2358.86 425.122 2358.86 421.744C2358.86 418.398 2359.43 415.257 2360.57 412.321C2361.71 409.354 2363.29 406.781 2365.33 404.603C2367.36 402.393 2369.77 400.657 2372.54 399.394C2375.32 398.131 2378.35 397.5 2381.65 397.5C2384.64 397.5 2387.41 398.037 2389.97 399.11C2392.53 400.152 2394.86 401.62 2396.95 403.514C2397.29 403.766 2397.62 404.082 2397.93 404.461C2398.23 404.808 2398.39 405.171 2398.39 405.55C2398.39 405.929 2398.25 406.276 2397.97 406.592L2397 407.87C2396.72 408.217 2396.48 408.486 2396.26 408.675C2396.08 408.833 2395.86 408.912 2395.61 408.912C2395.21 408.912 2394.78 408.675 2394.32 408.202C2392.65 406.528 2390.76 405.218 2388.63 404.271C2386.54 403.293 2384.24 402.803 2381.74 402.803C2379.18 402.803 2376.83 403.309 2374.67 404.319C2372.54 405.297 2370.69 406.655 2369.12 408.391C2367.58 410.096 2366.36 412.1 2365.47 414.405C2364.6 416.709 2364.17 419.156 2364.17 421.744C2364.17 424.364 2364.6 426.827 2365.47 429.131C2366.36 431.404 2367.58 433.409 2369.12 435.145C2370.69 436.881 2372.54 438.254 2374.67 439.265C2376.83 440.243 2379.18 440.733 2381.74 440.733C2382.98 440.733 2384.18 440.59 2385.35 440.306C2386.55 439.991 2387.71 439.565 2388.82 439.028C2389.93 438.491 2390.97 437.876 2391.96 437.181C2392.95 436.487 2393.86 435.729 2394.69 434.908Z" stroke="white" stroke-width="2.65"/>
<path d="M2403.43 421.886C2403.43 418.54 2404.05 415.399 2405.28 412.463C2406.51 409.496 2408.19 406.923 2410.32 404.745C2412.45 402.535 2414.94 400.799 2417.81 399.536C2420.68 398.273 2423.74 397.642 2427.01 397.642C2430.28 397.642 2433.35 398.273 2436.21 399.536C2439.11 400.799 2441.62 402.535 2443.75 404.745C2445.91 406.923 2447.6 409.496 2448.83 412.463C2450.07 415.399 2450.68 418.54 2450.68 421.886C2450.68 425.233 2450.07 428.374 2448.83 431.309C2447.6 434.245 2445.91 436.818 2443.75 439.028C2441.62 441.206 2439.11 442.927 2436.21 444.189C2433.35 445.452 2430.28 446.083 2427.01 446.083C2423.74 446.083 2420.68 445.452 2417.81 444.189C2414.94 442.927 2412.45 441.206 2410.32 439.028C2408.19 436.818 2406.51 434.245 2405.28 431.309C2404.05 428.374 2403.43 425.233 2403.43 421.886ZM2408.52 421.886C2408.52 424.507 2409.01 426.969 2410 429.273C2410.98 431.546 2412.31 433.551 2413.97 435.287C2415.67 437.023 2417.64 438.396 2419.89 439.407C2422.14 440.385 2424.54 440.875 2427.1 440.875C2429.63 440.875 2432.02 440.385 2434.27 439.407C2436.55 438.396 2438.52 437.023 2440.19 435.287C2441.88 433.551 2443.22 431.546 2444.21 429.273C2445.2 426.969 2445.69 424.507 2445.69 421.886C2445.69 419.266 2445.2 416.804 2444.21 414.499C2443.22 412.163 2441.88 410.143 2440.19 408.438C2438.52 406.702 2436.55 405.329 2434.27 404.319C2432.02 403.309 2429.63 402.803 2427.1 402.803C2424.54 402.803 2422.14 403.309 2419.89 404.319C2417.64 405.329 2415.67 406.702 2413.97 408.438C2412.31 410.143 2410.98 412.163 2410 414.499C2409.01 416.804 2408.52 419.266 2408.52 421.886Z" stroke="white" stroke-width="2.65"/>
<path d="M2467.57 443.29C2467.57 444.426 2467 444.994 2465.86 444.994H2463.96C2462.79 444.994 2462.2 444.426 2462.2 443.29V399.915C2462.2 399.473 2462.33 399.11 2462.57 398.826C2462.82 398.542 2463.17 398.4 2463.64 398.4H2466.37C2467.01 398.4 2467.37 398.747 2467.43 399.441L2467.57 405.076C2468.25 404.098 2469 403.182 2469.83 402.33C2470.7 401.446 2471.65 400.688 2472.7 400.057C2473.75 399.426 2474.87 398.921 2476.07 398.542C2477.31 398.163 2478.63 397.974 2480.05 397.974C2481.81 397.974 2483.46 398.226 2485 398.731C2486.54 399.205 2487.94 399.883 2489.21 400.767C2490.5 401.62 2491.64 402.646 2492.63 403.845C2493.61 405.013 2494.43 406.308 2495.08 407.728C2495.72 406.276 2496.53 404.95 2497.48 403.75C2498.44 402.519 2499.52 401.478 2500.72 400.625C2501.95 399.741 2503.31 399.063 2504.79 398.589C2506.27 398.116 2507.85 397.879 2509.55 397.879C2511.74 397.879 2513.77 398.273 2515.65 399.063C2517.56 399.852 2519.24 400.941 2520.69 402.33C2522.17 403.687 2523.37 405.297 2524.3 407.16C2525.22 409.022 2525.81 411.043 2526.06 413.221C2526.24 414.894 2526.33 416.551 2526.33 418.193V443.1C2526.33 443.732 2526.16 444.205 2525.82 444.521C2525.49 444.836 2525.04 444.994 2524.48 444.994H2522.82C2521.56 444.994 2520.92 444.379 2520.92 443.147V415.683C2520.89 413.979 2520.58 412.369 2520 410.853C2519.44 409.338 2518.66 408.028 2517.64 406.923C2516.62 405.818 2515.41 404.95 2513.99 404.319C2512.57 403.656 2511.03 403.324 2509.36 403.324C2507.92 403.324 2506.53 403.577 2505.2 404.082C2503.88 404.587 2502.68 405.282 2501.6 406.165C2500.55 407.049 2499.65 408.107 2498.92 409.338C2498.21 410.569 2497.71 411.895 2497.44 413.316C2497.28 414.073 2497.16 414.847 2497.07 415.636C2496.97 416.425 2496.93 417.23 2496.93 418.051V443.1C2496.93 444.363 2496.34 444.994 2495.17 444.994H2493.32C2492.15 444.994 2491.56 444.379 2491.56 443.147V415.541C2491.53 413.836 2491.19 412.242 2490.55 410.759C2489.93 409.275 2489.08 407.981 2488 406.876C2486.96 405.771 2485.72 404.903 2484.3 404.271C2482.89 403.64 2481.35 403.324 2479.68 403.324C2478.02 403.324 2476.44 403.656 2474.97 404.319C2473.49 404.95 2472.19 405.834 2471.08 406.97C2470 408.107 2469.14 409.433 2468.49 410.948C2467.88 412.463 2467.57 414.089 2467.57 415.825V443.29Z" stroke="white" stroke-width="2.65"/>
<path d="M155.236 336.259C157.689 336.259 159.781 336.98 161.512 338.423C163.388 339.722 164.326 341.814 164.326 344.699V351.841C164.326 355.159 163.316 357.396 161.296 358.55C159.42 359.704 157.04 360.281 154.154 360.281H147.662C140.304 360.281 133.45 359.776 127.102 358.766C120.754 357.901 115.271 355.736 110.655 352.274C106.038 348.811 102.359 343.689 99.6173 336.908C97.0203 329.983 95.7218 320.605 95.7218 308.774V169.618H65.8563C62.9707 169.618 60.8065 169.041 59.3638 167.887C58.0653 166.732 57.416 164.713 57.416 161.827V153.82C57.416 150.934 58.0653 148.914 59.3638 147.76C60.8065 146.606 62.9707 146.029 65.8563 146.029H95.7218V82.1857C95.7218 77.8574 98.1024 75.3325 102.864 74.6111L113.684 73.0962C116.57 73.0962 118.518 73.9619 119.528 75.6932C120.538 77.4245 121.043 79.5887 121.043 82.1857V146.029H158.483C161.08 146.029 163.1 146.678 164.542 147.976C166.129 149.275 166.923 151.367 166.923 154.252V161.394C166.923 164.28 166.129 166.372 164.542 167.67C163.1 168.969 161.08 169.618 158.483 169.618H121.043V302.931C121.043 310.577 121.547 316.565 122.557 320.893C123.567 325.077 125.154 328.251 127.319 330.416C129.483 332.58 132.152 334.023 135.326 334.744C138.644 335.321 142.612 335.826 147.229 336.259H155.236Z" fill="white"/>
<path d="M385.297 350.326C385.297 352.779 384.504 354.726 382.917 356.169C381.474 357.612 379.526 358.333 377.074 358.333H370.365C367.768 358.333 365.82 357.612 364.521 356.169C363.223 354.726 362.502 352.779 362.357 350.326C362.069 346.142 361.852 341.958 361.708 337.774C361.564 333.59 361.419 329.406 361.275 325.222C357.813 330.848 353.628 335.97 348.723 340.587C343.962 345.204 338.551 349.244 332.492 352.707C326.576 356.025 320.228 358.622 313.447 360.498C306.666 362.373 299.596 363.311 292.238 363.311C279.83 363.311 268.36 361.003 257.828 356.386C247.296 351.769 238.206 345.493 230.56 337.557C222.913 329.478 216.853 320.028 212.381 309.207C208.052 298.242 205.888 286.555 205.888 274.147V154.902C205.888 152.16 206.682 150.068 208.269 148.626C209.856 147.039 211.876 146.245 214.328 146.245H221.903C224.933 146.245 227.025 146.966 228.179 148.409C229.333 149.852 229.91 151.944 229.91 154.685V275.013C230.055 284.102 231.714 292.615 234.888 300.55C238.206 308.341 242.751 315.194 248.522 321.11C254.293 326.881 261.146 331.426 269.082 334.744C277.161 338.062 285.962 339.722 295.485 339.722C304.43 339.722 312.87 338.062 320.805 334.744C328.885 331.426 335.882 326.881 341.798 321.11C347.857 315.194 352.619 308.341 356.081 300.55C359.544 292.759 361.275 284.319 361.275 275.229V154.252C361.275 148.914 363.944 146.245 369.283 146.245H376.857C382.484 146.245 385.297 148.914 385.297 154.252V350.326Z" fill="white"/>
<path d="M155.236 336.259C157.689 336.259 159.781 336.98 161.512 338.423C163.388 339.722 164.326 341.814 164.326 344.699V351.841C164.326 355.159 163.316 357.396 161.296 358.55C159.42 359.704 157.04 360.281 154.154 360.281H147.662C140.304 360.281 133.45 359.776 127.102 358.766C120.754 357.901 115.271 355.736 110.655 352.274C106.038 348.811 102.359 343.689 99.6173 336.908C97.0203 329.983 95.7218 320.605 95.7218 308.774V169.618H65.8563C62.9707 169.618 60.8065 169.041 59.3638 167.887C58.0653 166.732 57.416 164.713 57.416 161.827V153.82C57.416 150.934 58.0653 148.914 59.3638 147.76C60.8065 146.606 62.9707 146.029 65.8563 146.029H95.7218V82.1857C95.7218 77.8574 98.1024 75.3325 102.864 74.6111L113.684 73.0962C116.57 73.0962 118.518 73.9619 119.528 75.6932C120.538 77.4245 121.043 79.5887 121.043 82.1857V146.029H158.483C161.08 146.029 163.1 146.678 164.542 147.976C166.129 149.275 166.923 151.367 166.923 154.252V161.394C166.923 164.28 166.129 166.372 164.542 167.67C163.1 168.969 161.08 169.618 158.483 169.618H121.043V302.931C121.043 310.577 121.547 316.565 122.557 320.893C123.567 325.077 125.154 328.251 127.319 330.416C129.483 332.58 132.152 334.023 135.326 334.744C138.644 335.321 142.612 335.826 147.229 336.259H155.236Z" stroke="white" stroke-width="4.41667"/>
<path d="M385.297 350.326C385.297 352.779 384.504 354.726 382.917 356.169C381.474 357.612 379.526 358.333 377.074 358.333H370.365C367.768 358.333 365.82 357.612 364.521 356.169C363.223 354.726 362.502 352.779 362.357 350.326C362.069 346.142 361.852 341.958 361.708 337.774C361.564 333.59 361.419 329.406 361.275 325.222C357.813 330.848 353.628 335.97 348.723 340.587C343.962 345.204 338.551 349.244 332.492 352.707C326.576 356.025 320.228 358.622 313.447 360.498C306.666 362.373 299.596 363.311 292.238 363.311C279.83 363.311 268.36 361.003 257.828 356.386C247.296 351.769 238.206 345.493 230.56 337.557C222.913 329.478 216.853 320.028 212.381 309.207C208.052 298.242 205.888 286.555 205.888 274.147V154.902C205.888 152.16 206.682 150.068 208.269 148.626C209.856 147.039 211.876 146.245 214.328 146.245H221.903C224.933 146.245 227.025 146.966 228.179 148.409C229.333 149.852 229.91 151.944 229.91 154.685V275.013C230.055 284.102 231.714 292.615 234.888 300.55C238.206 308.341 242.751 315.194 248.522 321.11C254.293 326.881 261.146 331.426 269.082 334.744C277.161 338.062 285.962 339.722 295.485 339.722C304.43 339.722 312.87 338.062 320.805 334.744C328.885 331.426 335.882 326.881 341.798 321.11C347.857 315.194 352.619 308.341 356.081 300.55C359.544 292.759 361.275 284.319 361.275 275.229V154.252C361.275 148.914 363.944 146.245 369.283 146.245H376.857C382.484 146.245 385.297 148.914 385.297 154.252V350.326Z" stroke="white" stroke-width="4.41667"/>
</svg>
