<svg width="35" height="35" viewBox="0 0 35 35" fill="none" xmlns="http://www.w3.org/2000/svg">
<path d="M9.14367 29.9761L9.70926 30.2589C12.0659 31.6729 14.7053 32.3327 17.3447 32.3327C25.64 32.3327 32.427 25.5457 32.427 17.2504C32.427 13.2913 30.8245 9.42646 27.9966 6.59853C25.1686 3.77059 21.3981 2.16809 17.3447 2.16809C9.04941 2.16809 2.26236 8.95514 2.35662 17.3447C2.35662 20.1726 3.205 22.9063 4.61897 25.2629L4.99603 25.8285L3.4878 31.3901L9.14367 29.9761Z" fill="#13815C"/>
<path d="M29.5991 5.09029C26.3941 1.79103 21.9636 0 17.4389 0C7.82396 0 0.0942646 7.82396 0.188529 17.3447C0.188529 20.3611 1.03691 23.2833 2.45088 25.9228L0 34.8779L9.14366 32.5213C11.6888 33.9352 14.5167 34.5951 17.3447 34.5951C26.8654 34.5951 34.5951 26.7711 34.5951 17.2504C34.5951 12.6315 32.8041 8.29528 29.5991 5.09029ZM17.4389 31.6729C14.8938 31.6729 12.3487 31.013 10.1806 29.6933L9.61499 29.4105L4.14764 30.8245L5.56161 25.4514L5.18455 24.8858C1.03691 18.1931 3.01647 9.33219 9.80351 5.18455C16.5906 1.03691 25.3572 3.01647 29.5048 9.80351C33.6524 16.5906 31.6729 25.3572 24.8858 29.5048C22.7178 30.9188 20.0784 31.6729 17.4389 31.6729ZM25.7342 21.2095L24.6973 20.7382C24.6973 20.7382 23.1891 20.0784 22.2464 19.607C22.1522 19.607 22.0579 19.5128 21.9636 19.5128C21.6808 19.5128 21.4923 19.607 21.3038 19.7013C21.3038 19.7013 21.2095 19.7956 19.8898 21.3038C19.7956 21.4923 19.607 21.5866 19.4185 21.5866H19.3242C19.23 21.5866 19.0414 21.4923 18.9472 21.3981L18.4759 21.2095C17.4389 20.7382 16.4963 20.1726 15.7422 19.4185C15.5537 19.23 15.2709 19.0414 15.0823 18.8529C14.4225 18.1931 13.7626 17.4389 13.2913 16.5906L13.197 16.402C13.1028 16.3078 13.1028 16.2135 13.0085 16.025C13.0085 15.8364 13.0085 15.6479 13.1028 15.5537C13.1028 15.5537 13.4798 15.0823 13.7626 14.7995C13.9512 14.611 14.0454 14.3282 14.2339 14.1397C14.4225 13.8569 14.5167 13.4798 14.4225 13.197C14.3282 12.7257 13.197 10.1806 12.9142 9.61499C12.7257 9.33219 12.5372 9.23793 12.2544 9.14366H11.9716C11.7831 9.14366 11.5003 9.14366 11.2175 9.14366C11.029 9.14366 10.8404 9.23793 10.6519 9.23793L10.5576 9.33219C10.3691 9.42646 10.1806 9.61498 9.99204 9.70925C9.80351 9.89778 9.70925 10.0863 9.52072 10.2748C8.86087 11.1232 8.48381 12.1601 8.48381 13.197C8.48381 13.9512 8.67234 14.7053 8.95513 15.3651L9.0494 15.6479C9.89778 17.4389 11.029 19.0414 12.5372 20.4554L12.9142 20.8325C13.197 21.1153 13.4798 21.3038 13.6684 21.5866C15.6479 23.2833 17.9103 24.5088 20.4554 25.1686C20.7382 25.2629 21.1153 25.2629 21.3981 25.3572C21.6808 25.3572 22.0579 25.3572 22.3407 25.3572C22.812 25.3572 23.3776 25.1686 23.7547 24.9801C24.0375 24.7916 24.226 24.7916 24.4145 24.6031L24.6031 24.4145C24.7916 24.226 24.9801 24.1317 25.1686 23.9432C25.3572 23.7547 25.5457 23.5661 25.64 23.3776C25.8285 23.0006 25.9228 22.5292 26.017 22.0579C26.017 21.8694 26.017 21.5866 26.017 21.3981C26.017 21.3981 25.9228 21.3038 25.7342 21.2095Z" fill="white"/>
</svg>
